<svg xmlns="http://www.w3.org/2000/svg" viewBox="0 0 1200 640" role="img" aria-labelledby="title desc">
  <title id="title">Умное окно OKNOTIKA</title>
  <desc id="desc">Архитектурная схема умного окна с автоматикой, датчиками и управлением</desc>
  <defs>
    <linearGradient id="bg" x1="0" y1="0" x2="1" y2="1">
      <stop offset="0" stop-color="#0b0f12"/>
      <stop offset="0.55" stop-color="#122026"/>
      <stop offset="1" stop-color="#26312e"/>
    </linearGradient>
    <linearGradient id="glass" x1="0" y1="0" x2="1" y2="1">
      <stop offset="0" stop-color="#dffcff" stop-opacity="0.75"/>
      <stop offset="0.45" stop-color="#80dce6" stop-opacity="0.36"/>
      <stop offset="1" stop-color="#101820" stop-opacity="0.7"/>
    </linearGradient>
    <filter id="shadow" x="-20%" y="-20%" width="140%" height="140%">
      <feDropShadow dx="0" dy="24" stdDeviation="28" flood-color="#000" flood-opacity="0.45"/>
    </filter>
  </defs>
  <rect width="1200" height="640" fill="url(#bg)"/>
  <g opacity="0.16" stroke="#f4efe6" stroke-width="1">
    <path d="M0 100h1200M0 220h1200M0 340h1200M0 460h1200M0 580h1200"/>
    <path d="M120 0v640M300 0v640M480 0v640M660 0v640M840 0v640M1020 0v640"/>
  </g>
  <g filter="url(#shadow)">
    <rect x="170" y="84" width="606" height="442" rx="18" fill="#070b0e" stroke="#c5a15f" stroke-width="6"/>
    <rect x="205" y="120" width="252" height="370" rx="6" fill="url(#glass)" stroke="#f4efe6" stroke-opacity="0.35" stroke-width="2"/>
    <rect x="488" y="120" width="252" height="370" rx="6" fill="url(#glass)" stroke="#f4efe6" stroke-opacity="0.35" stroke-width="2"/>
    <path d="M486 120v370" stroke="#c5a15f" stroke-width="8"/>
    <path d="M214 456h234M498 456h232" stroke="#fff" stroke-opacity="0.22" stroke-width="3"/>
    <circle cx="460" cy="306" r="6" fill="#c5a15f"/>
    <path d="M226 142l206 318M514 142l206 318" stroke="#f4efe6" stroke-opacity="0.13" stroke-width="3"/>
  </g>
  <g transform="translate(815 116)" filter="url(#shadow)">
    <rect width="220" height="344" rx="30" fill="#0c1115" stroke="#f4efe6" stroke-opacity="0.22"/>
    <rect x="22" y="54" width="176" height="218" rx="18" fill="#111b20" stroke="#74d7df" stroke-opacity="0.35"/>
    <circle cx="110" cy="305" r="17" fill="#1b282d" stroke="#f4efe6" stroke-opacity="0.18"/>
    <text x="110" y="35" text-anchor="middle" font-family="Inter, Arial, sans-serif" font-size="18" font-weight="800" fill="#f4efe6" letter-spacing="2">OKNOTIKA</text>
    <text x="110" y="103" text-anchor="middle" font-family="Inter, Arial, sans-serif" font-size="54" font-weight="900" fill="#74d7df">42%</text>
    <text x="110" y="132" text-anchor="middle" font-family="Inter, Arial, sans-serif" font-size="15" font-weight="700" fill="#82909a">проветривание</text>
    <path d="M55 178h110M55 216h110" stroke="#f4efe6" stroke-opacity="0.22" stroke-width="6" stroke-linecap="round"/>
    <path d="M55 178h76M55 216h42" stroke="#c5a15f" stroke-width="6" stroke-linecap="round"/>
  </g>
  <g fill="none" stroke="#74d7df" stroke-width="3" stroke-linecap="round" stroke-dasharray="8 12" opacity="0.8">
    <path d="M760 210c52 0 66 0 108 0"/>
    <path d="M760 326c58 0 74 0 108 0"/>
  </g>
  <g font-family="Inter, Arial, sans-serif" font-weight="800">
    <text x="170" y="584" fill="#f4efe6" font-size="42" letter-spacing="-1.5">Умное окно</text>
    <text x="512" y="584" fill="#c5a15f" font-size="42" letter-spacing="-1.5">ФУТУРУСС</text>
  </g>
</svg>
