<svg version="1.0" xmlns="http://www.w3.org/2000/svg"
 width="1254.000000pt" height="1254.000000pt" viewBox="0 0 1254.000000 1254.000000"
 preserveAspectRatio="xMidYMid meet">

<g transform="translate(0.000000,1254.000000) scale(0.100000,-0.100000)"
fill="#000000" stroke="none">
<path d="M5965 10199 c-295 -23 -650 -110 -935 -231 -1030 -436 -1726 -1309
-1904 -2388 -45 -275 -54 -631 -22 -875 66 -491 236 -961 488 -1348 110 -168
136 -199 162 -195 25 4 28 14 56 228 79 587 248 1206 483 1767 412 981 956
1805 1843 2793 143 160 150 171 134 210 -21 51 -69 57 -305 39z m-1055 -884
c59 -31 109 -108 110 -170 0 -52 -44 -131 -89 -161 -62 -41 -122 -43 -191 -7
-125 66 -140 227 -28 316 58 46 133 55 198 22z m-709 -578 c70 -47 76 -144 12
-204 -28 -27 -42 -33 -79 -33 -78 0 -125 38 -139 113 -20 108 112 188 206 124z
m-107 -591 c63 -31 119 -89 149 -155 32 -69 30 -178 -4 -252 -94 -201 -352
-246 -509 -89 -164 164 -92 443 133 516 64 21 165 12 231 -20z m-413 -1621
c90 -47 90 -193 0 -240 -89 -46 -201 21 -201 119 0 104 108 168 201 121z"/>
<path d="M6601 10177 c-36 -13 -103 -81 -401 -417 -585 -658 -1007 -1236
-1334 -1828 -97 -177 -100 -204 -50 -601 151 -1209 585 -2380 1222 -3293 106
-153 108 -154 362 -151 365 5 671 64 1004 195 849 334 1511 1010 1835 1873
130 343 193 708 194 1105 1 525 -98 958 -328 1425 -255 519 -631 940 -1107
1241 -142 89 -456 243 -613 299 -166 60 -353 109 -540 140 -163 28 -194 29
-244 12z m1510 -1717 c121 -23 236 -101 296 -201 65 -110 63 -59 63 -1274 0
-1201 2 -1159 -57 -1267 -37 -67 -121 -143 -200 -181 l-68 -32 -1060 -3 c-768
-2 -1077 0 -1120 8 -165 32 -292 150 -335 310 -9 34 -12 327 -12 1170 l0 1125
21 56 c42 111 115 195 214 245 105 54 72 53 1178 53 659 1 1046 -3 1080 -9z"/>
<path d="M5946 8280 c-58 -23 -98 -58 -134 -120 l-27 -45 -3 -1113 c-1 -732 1
-1127 8 -1151 16 -59 72 -125 132 -155 l52 -26 1070 0 c1016 0 1073 1 1111 19
50 22 99 70 128 125 l22 41 0 1125 0 1125 -23 45 c-30 58 -67 96 -117 123
l-40 22 -1065 2 c-1030 2 -1067 2 -1114 -17z m1026 -597 c17 -15 18 -38 18
-319 0 -302 0 -303 -22 -318 -19 -14 -65 -16 -300 -16 -265 0 -279 1 -298 20
-19 19 -20 33 -20 315 0 282 1 296 20 315 19 19 33 20 302 20 248 0 284 -2
300 -17z m777 -9 c20 -26 21 -39 21 -312 0 -280 0 -286 -22 -309 -21 -23 -22
-23 -304 -23 -263 0 -283 1 -305 19 l-24 19 0 297 0 297 24 19 c22 18 42 19
306 19 l284 0 20 -26z m-802 -775 c15 -5 31 -16 35 -22 4 -7 8 -144 8 -306 0
-260 -2 -297 -17 -313 -15 -17 -38 -18 -297 -18 -239 0 -285 2 -304 16 -22 15
-22 17 -22 313 0 332 -2 325 70 334 80 9 500 7 527 -4z m804 -18 c18 -22 19
-43 19 -312 0 -276 -1 -290 -20 -309 -19 -19 -33 -20 -304 -20 -264 0 -285 1
-307 19 l-24 19 -2 279 c-1 175 2 288 8 305 6 15 23 31 38 37 15 6 138 9 299
8 l274 -2 19 -24z"/>
<path d="M4567 7363 c-261 -559 -467 -1238 -562 -1853 -34 -224 -58 -476 -51
-543 8 -75 21 -99 98 -173 246 -238 488 -411 778 -558 261 -133 536 -226 829
-282 132 -26 141 -26 165 -10 45 29 37 51 -71 219 -159 247 -348 598 -487 911
-298 665 -499 1383 -600 2146 -30 223 -33 240 -45 240 -4 0 -29 -44 -54 -97z
m714 -2752 c54 -34 79 -80 79 -145 0 -160 -193 -236 -302 -120 -53 58 -63 133
-25 205 47 89 160 117 248 60z"/>
<path d="M2125 3390 c-124 -26 -223 -90 -286 -184 -55 -82 -72 -148 -67 -260
3 -76 9 -102 35 -158 155 -330 658 -324 816 9 29 63 32 76 32 168 -1 116 -20
178 -82 259 -46 61 -145 130 -216 151 -64 19 -179 27 -232 15z m211 -159 c225
-99 225 -423 0 -522 -69 -31 -182 -32 -247 -2 -132 59 -199 206 -159 349 46
163 242 247 406 175z"/>
<path d="M5717 3384 c-197 -47 -327 -212 -327 -415 0 -265 239 -462 510 -420
360 55 502 473 244 721 -117 112 -268 153 -427 114z m248 -158 c99 -49 155
-141 155 -256 0 -116 -56 -207 -158 -257 -73 -36 -181 -39 -253 -6 -91 41
-157 136 -166 241 -6 70 7 124 48 185 79 120 238 159 374 93z"/>
<path d="M3092 3358 c-17 -17 -18 -778 0 -796 16 -16 110 -16 126 0 8 8 12 60
12 168 0 105 4 160 12 168 8 8 33 -9 101 -71 49 -45 138 -126 198 -179 l109
-98 59 0 c60 0 91 15 91 45 0 16 -198 205 -374 357 l-31 27 22 22 c12 12 95
86 184 163 89 78 167 148 172 157 6 9 7 24 4 33 -5 13 -21 16 -84 16 l-78 -1
-185 -163 c-102 -90 -188 -161 -192 -157 -4 3 -9 76 -10 161 l-3 155 -60 3
c-38 2 -65 -2 -73 -10z"/>
<path d="M4202 3358 c-17 -17 -17 -779 0 -796 7 -7 37 -12 68 -12 31 0 61 5
68 12 8 8 12 62 12 175 l0 163 230 0 230 0 0 -163 c0 -113 4 -167 12 -175 17
-17 113 -15 131 3 12 12 14 73 11 400 -2 212 -6 390 -9 395 -9 14 -119 12
-133 -2 -8 -8 -12 -59 -12 -165 l0 -153 -230 0 -230 0 0 149 c0 82 -3 156 -6
165 -8 20 -123 23 -142 4z"/>
<path d="M6600 3351 c-15 -29 -12 -77 6 -95 12 -13 41 -16 150 -16 l134 0 0
-339 c0 -300 2 -340 16 -345 27 -10 110 -6 122 6 9 9 12 99 12 345 l0 333 133
0 c161 0 170 4 165 75 l-3 50 -362 3 c-350 2 -363 2 -373 -17z"/>
<path d="M7717 3364 c-4 -4 -7 -183 -7 -399 0 -291 3 -394 12 -403 7 -7 34
-12 60 -12 58 0 29 -29 322 313 l221 259 3 -273 c1 -180 6 -277 13 -286 13
-14 106 -18 127 -5 9 7 12 95 10 408 l-3 399 -61 3 -62 3 -149 -173 c-82 -95
-192 -222 -244 -282 l-94 -110 -5 280 -5 279 -65 3 c-36 2 -69 0 -73 -4z"/>
<path d="M8907 3364 c-4 -4 -7 -184 -7 -399 0 -330 2 -394 14 -405 17 -13 105
-11 124 3 9 7 12 54 12 172 0 123 3 164 13 168 7 2 102 -76 211 -174 l198
-179 57 0 c69 0 97 16 87 51 -3 14 -87 97 -201 199 -107 96 -195 179 -194 185
0 5 51 53 112 105 248 212 268 232 265 254 -3 19 -10 21 -83 24 l-80 3 -182
-161 c-100 -89 -186 -162 -190 -163 -4 -1 -10 70 -13 158 l-5 160 -65 3 c-36
2 -69 0 -73 -4z"/>
<path d="M10266 3348 c-8 -13 -89 -177 -180 -364 -92 -188 -173 -354 -180
-370 -24 -46 -6 -64 62 -64 31 0 62 4 69 8 7 4 31 47 53 95 l41 87 217 0 218
0 39 -82 c22 -44 46 -87 53 -95 15 -15 109 -18 131 -4 9 6 11 18 8 33 -4 13
-90 193 -191 401 l-185 377 -70 0 c-62 0 -72 -3 -85 -22z m158 -306 c36 -78
66 -147 66 -152 0 -6 -58 -10 -146 -10 -113 0 -145 3 -141 13 35 89 142 306
148 300 4 -5 37 -72 73 -151z"/>
</g>
</svg>